<svg xmlns="http://www.w3.org/2000/svg">
  <defs>
    <symbol id="icon-basketball" viewBox="-5.0 -10.0 110.0 135.0">
     <path d="m72.656 89.242c21.656-12.504 29.09-40.238 16.586-61.898-12.504-21.66-40.242-29.09-61.898-16.586-21.656 12.504-29.09 40.238-16.586 61.898 12.508 21.66 40.242 29.09 61.898 16.586zm-4.125-44c-0.34375 0.17187-0.67969 0.35156-1.0156 0.54687-0.14453 0.082032-0.29297 0.17188-0.44141 0.25391-7.3555 4.2461-12.344 11.652-13.512 20.07-0.38672 2.7539-0.78516 5.6484-1.1719 8.4062-0.91016 6.5664-3.9102 12.582-8.4492 17.223 7.5508 1.1055 15.441 0.17578 22.805-3.0156 7.1445-13.098 8.1641-29.184 1.7852-43.484zm-5.4844-9.375c-3.4102 1.7266-6.8359 3.5781-10.25 5.5508-15.477 8.9336-28.844 19.234-39.281 29.762 6.0234 10.383 15.816 17.238 26.652 19.84 4.9336-4.3242 8.207-10.316 9.1289-16.93 0.38281-2.7578 0.78516-5.6484 1.1719-8.4102 1.2969-9.3672 6.8516-17.609 15.043-22.344 0.14844-0.082032 0.29688-0.17188 0.44141-0.25391 0.40234-0.23047 0.80859-0.44922 1.2188-0.65234-0.3125-0.59375-0.64062-1.1875-0.98047-1.7773-0.96875-1.6758-2.0195-3.2695-3.1445-4.7852zm29.078 16.41c-2.4023-4.0859-6.3164-7.0664-10.898-8.293-3.2344-0.86719-6.6172-0.8125-9.7773 0.11719 6.1094 13.801 5.7539 29.145-0.058594 42.262 12.625-7.4258 19.98-20.441 20.734-34.086zm-36.656-24.496c-0.68359 0.51562-1.4062 0.99609-2.1641 1.4336h-0.003907c-8.7695 5.0625-19.16 6.5312-28.988 4.0938-3.7227-0.92188-8.0703-1.7578-12.867-0.42188-4.8672 11-4.9922 23.934 0.53906 35.402 10.508-10.461 23.852-20.688 39.25-29.578 3.2734-1.8906 6.5547-3.6719 9.8281-5.3398-1.7266-2.0352-3.6016-3.8984-5.5938-5.5898zm29.504-1.3789c-6.2461 2.2344-12.641 4.9219-19.082 8.0586 1.0703 1.4688 2.0781 3.0156 3.0078 4.6289 0.41406 0.71484 0.80469 1.4336 1.1836 2.1641 3.8438-1.2305 7.9922-1.3516 11.949-0.28906 3.8906 1.043 7.3633 3.1562 10.055 6.0586-0.42969-6.1953-2.2422-12.387-5.5508-18.117-0.49609-0.85938-1.0195-1.6953-1.5625-2.5039zm-21.309-16.309c0.30469 5.7227-1.7695 11.414-5.832 15.598 2.1836 1.8828 4.2305 3.9688 6.1055 6.2422 6.4453-3.1602 12.848-5.8828 19.113-8.1602-5.1289-6.4805-11.918-11.125-19.387-13.68zm-38.828 6.043c-4.8711 3.6094-8.7734 8.1289-11.605 13.18 4.3555-0.65234 8.3398 0.09375 11.836 0.96094 9.043 2.2422 18.605 0.89062 26.672-3.7695h0.003907c0.40625-0.23437 0.80078-0.48437 1.1797-0.74609-8.168-6.0391-18.016-9.3789-28.086-9.625zm35.609-7.0039c-10.199-2.6094-21.383-1.4258-31.242 4.1602 9.4492 1.0117 18.543 4.582 26.191 10.418 3.8516-3.8438 5.6836-9.2539 5.0508-14.578z" fill-rule="evenodd"/>
    </symbol>
    <symbol id="icon-championship" viewBox="-5.0 -10.0 110.0 135.0">
     <path d="m39.32 6.3594c-0.82812 0-1.5-0.67188-1.5-1.5s0.67188-1.5 1.5-1.5h0.29688c0.82812 0 1.5 0.67188 1.5 1.5s-0.67188 1.5-1.5 1.5zm10.676 9.5352c3.3711 0 6.4297 1.3672 8.6406 3.5781 2.2109 2.2109 3.5781 5.2695 3.5781 8.6406 0 3.3711-1.3672 6.4297-3.5781 8.6406-2.2109 2.2109-5.2695 3.5781-8.6406 3.5781s-6.4297-1.3672-8.6406-3.5781c-2.2109-2.2109-3.5781-5.2695-3.5781-8.6406 0-3.3711 1.3672-6.4297 3.5781-8.6406 2.2109-2.2109 5.2695-3.5781 8.6406-3.5781zm6.5195 5.6992c-1.668-1.668-3.9727-2.6992-6.5195-2.6992-2.543 0-4.8516 1.0312-6.5156 2.6992-1.668 1.668-2.6992 3.9727-2.6992 6.5195 0 2.543 1.0312 4.8516 2.6992 6.5156 1.668 1.668 3.9727 2.6992 6.5156 2.6992 2.543 0 4.8516-1.0312 6.5195-2.6992 1.668-1.668 2.6992-3.9727 2.6992-6.5156s-1.0312-4.8516-2.6992-6.5195zm-32.594-10.484c-4.3516 0.75781-7.6055 4.0156-9.4844 8.4688-1.2148 2.8789-1.8672 6.2539-1.8867 9.7969-0.019531 3.5625 0.60156 7.2891 1.9258 10.84 2.9688 7.9414 9.5078 15.031 20.387 17.555-4.8711-5.4102-8.457-11.789-10.566-18.641-2.7539-8.9219-3.0117-18.637-0.37891-28.023zm14.617 50.332c-14.625-1.7227-23.191-10.359-26.863-20.18-1.4531-3.8984-2.1367-7.9844-2.1133-11.895 0.019531-3.9336 0.75781-7.7031 2.1211-10.945 2.4844-5.8867 7.0312-10.055 13.23-10.445 0.44141-1.2461 0.93359-2.4883 1.4805-3.7188 0.24609-0.55469 0.79297-0.88281 1.3633-0.88672l7.0156-0.007813c0.82812 0 1.5 0.67188 1.5 1.5s-0.67188 1.5-1.5 1.5h-6.0352c-4.4141 10.473-4.7227 21.73-1.5859 31.895 3.2383 10.492 10.148 19.824 20 25.93 0.48828 0.25 0.82422 0.75781 0.82422 1.3398v12.477h4.0312v-12.477c0.007813-0.5 0.25781-0.98828 0.71484-1.2734 9.9102-6.1016 16.859-15.461 20.113-26 3.1367-10.16 2.8281-21.422-1.5859-31.895h-27.09c-0.82812 0-1.5-0.67188-1.5-1.5s0.67188-1.5 1.5-1.5h28.066c0.66016 0 1.2227 0.42969 1.4219 1.0234 0.52344 1.1875 1 2.3828 1.4219 3.5898 1.957 0.12891 3.7617 0.63672 5.3945 1.4648 3.2266 1.6367 5.7461 4.5039 7.4375 8.0781 1.6484 3.4844 2.5273 7.6641 2.5273 12.031 0 4.9727-1.1406 10.227-3.5664 15.012-0.37109 0.73828-1.2734 1.0312-2.0117 0.66406-0.73828-0.37109-1.0312-1.2734-0.66406-2.0117 2.2031-4.3438 3.2383-9.1289 3.2383-13.668 0-3.9375-0.77734-7.668-2.2344-10.754-1.4141-2.9922-3.4727-5.3633-6.0742-6.6836-0.9375-0.47656-1.9609-0.82031-3.0586-1.0039 2.6328 9.3906 2.3789 19.105-0.375 28.027-2.1133 6.8477-5.6953 13.23-10.57 18.641 2.0898-0.48438 4.0195-1.1328 5.7891-1.9219 3.1602-1.4102 5.8281-3.2773 8.0391-5.4414 0.58984-0.57812 1.5352-0.57031 2.1133 0.019531 0.57812 0.58984 0.57031 1.5352-0.019532 2.1133-2.4492 2.4023-5.4141 4.4727-8.918 6.0391-3.125 1.3984-6.6797 2.3906-10.676 2.8633-1.9844 1.7852-4.1367 3.4297-6.4453 4.9062v11.656h7.8633c2.0977 0 4.0039 0.85938 5.3867 2.2422l0.007812 0.007812c1.3789 1.3828 2.2383 3.2891 2.2383 5.3828v9.5078c0 0.82812-0.67188 1.5-1.5 1.5h-23.75c-0.82813 0-1.5-0.67188-1.5-1.5s0.67187-1.5 1.5-1.5h22.25v-8.0078c0-1.2773-0.52344-2.4375-1.3555-3.2734-0.84375-0.84375-2-1.3633-3.2773-1.3633h-25.758c-1.2734 0-2.4375 0.52344-3.2734 1.3555-0.84375 0.84375-1.3633 2-1.3633 3.2773v8.0078h3.3867c0.82813 0 1.5 0.67188 1.5 1.5s-0.67187 1.5-1.5 1.5h-4.8867c-0.82812 0-1.5-0.67188-1.5-1.5v-9.5078c0-2.0977 0.85938-4.0039 2.2422-5.3867l0.007813-0.007813c1.3867-1.3789 3.293-2.2383 5.3828-2.2383h7.8633v-11.656c-2.3086-1.4727-4.4531-3.1172-6.4453-4.9062zm43.418-14.523c0.48438-0.66406 1.418-0.8125 2.0859-0.32812 0.66406 0.48438 0.8125 1.418 0.32812 2.0859l-0.17578 0.23828c-0.48437 0.66406-1.418 0.8125-2.0859 0.32813-0.66406-0.48438-0.8125-1.418-0.32812-2.0859zm-41.242 46.727c0.82812 0 1.5 0.67188 1.5 1.5s-0.67188 1.5-1.5 1.5h-0.29688c-0.82812 0-1.5-0.67188-1.5-1.5s0.67188-1.5 1.5-1.5z"/>
    </symbol>

  </defs>
</svg>