<svg xmlns="http://www.w3.org/2000/svg" version="1.1" viewBox="-5.0 -10.0 110.0 135.0">
 <path d="m72.656 89.242c21.656-12.504 29.09-40.238 16.586-61.898-12.504-21.66-40.242-29.09-61.898-16.586-21.656 12.504-29.09 40.238-16.586 61.898 12.508 21.66 40.242 29.09 61.898 16.586zm-4.125-44c-0.34375 0.17187-0.67969 0.35156-1.0156 0.54687-0.14453 0.082032-0.29297 0.17188-0.44141 0.25391-7.3555 4.2461-12.344 11.652-13.512 20.07-0.38672 2.7539-0.78516 5.6484-1.1719 8.4062-0.91016 6.5664-3.9102 12.582-8.4492 17.223 7.5508 1.1055 15.441 0.17578 22.805-3.0156 7.1445-13.098 8.1641-29.184 1.7852-43.484zm-5.4844-9.375c-3.4102 1.7266-6.8359 3.5781-10.25 5.5508-15.477 8.9336-28.844 19.234-39.281 29.762 6.0234 10.383 15.816 17.238 26.652 19.84 4.9336-4.3242 8.207-10.316 9.1289-16.93 0.38281-2.7578 0.78516-5.6484 1.1719-8.4102 1.2969-9.3672 6.8516-17.609 15.043-22.344 0.14844-0.082032 0.29688-0.17188 0.44141-0.25391 0.40234-0.23047 0.80859-0.44922 1.2188-0.65234-0.3125-0.59375-0.64062-1.1875-0.98047-1.7773-0.96875-1.6758-2.0195-3.2695-3.1445-4.7852zm29.078 16.41c-2.4023-4.0859-6.3164-7.0664-10.898-8.293-3.2344-0.86719-6.6172-0.8125-9.7773 0.11719 6.1094 13.801 5.7539 29.145-0.058594 42.262 12.625-7.4258 19.98-20.441 20.734-34.086zm-36.656-24.496c-0.68359 0.51562-1.4062 0.99609-2.1641 1.4336h-0.003907c-8.7695 5.0625-19.16 6.5312-28.988 4.0938-3.7227-0.92188-8.0703-1.7578-12.867-0.42188-4.8672 11-4.9922 23.934 0.53906 35.402 10.508-10.461 23.852-20.688 39.25-29.578 3.2734-1.8906 6.5547-3.6719 9.8281-5.3398-1.7266-2.0352-3.6016-3.8984-5.5938-5.5898zm29.504-1.3789c-6.2461 2.2344-12.641 4.9219-19.082 8.0586 1.0703 1.4688 2.0781 3.0156 3.0078 4.6289 0.41406 0.71484 0.80469 1.4336 1.1836 2.1641 3.8438-1.2305 7.9922-1.3516 11.949-0.28906 3.8906 1.043 7.3633 3.1562 10.055 6.0586-0.42969-6.1953-2.2422-12.387-5.5508-18.117-0.49609-0.85938-1.0195-1.6953-1.5625-2.5039zm-21.309-16.309c0.30469 5.7227-1.7695 11.414-5.832 15.598 2.1836 1.8828 4.2305 3.9688 6.1055 6.2422 6.4453-3.1602 12.848-5.8828 19.113-8.1602-5.1289-6.4805-11.918-11.125-19.387-13.68zm-38.828 6.043c-4.8711 3.6094-8.7734 8.1289-11.605 13.18 4.3555-0.65234 8.3398 0.09375 11.836 0.96094 9.043 2.2422 18.605 0.89062 26.672-3.7695h0.003907c0.40625-0.23437 0.80078-0.48437 1.1797-0.74609-8.168-6.0391-18.016-9.3789-28.086-9.625zm35.609-7.0039c-10.199-2.6094-21.383-1.4258-31.242 4.1602 9.4492 1.0117 18.543 4.582 26.191 10.418 3.8516-3.8438 5.6836-9.2539 5.0508-14.578z" fill-rule="evenodd"/>
<text x="0.0" y="117.5" font-size="5.0" font-weight="bold" font-family="Arbeit Regular, Helvetica, Arial-Unicode, Arial, Sans-serif" fill="#000000">Created by rendicon</text><text x="0.0" y="122.5" font-size="5.0" font-weight="bold" font-family="Arbeit Regular, Helvetica, Arial-Unicode, Arial, Sans-serif" fill="#000000">from Noun Project</text></svg>